<?xml version="1.0" standalone="no"?>
<!DOCTYPE svg PUBLIC "-//W3C//DTD SVG 20010904//EN"
 "http://www.w3.org/TR/2001/REC-SVG-20010904/DTD/svg10.dtd">
<svg version="1.0" xmlns="http://www.w3.org/2000/svg"
 width="700.000000pt" height="300.000000pt" viewBox="0 0 700.000000 300.000000"
 preserveAspectRatio="xMidYMid meet">

<g transform="translate(0.000000,300.000000) scale(0.100000,-0.100000)"
fill="#000000" stroke="none">
<path d="M3744 2142 c-240 -323 -444 -595 -453 -604 -15 -16 -48 27 -445 583
-236 329 -435 599 -442 599 -7 0 -15 -4 -19 -9 -3 -6 190 -283 430 -616 239
-333 435 -608 435 -610 0 -2 -194 -264 -431 -581 -238 -318 -432 -584 -433
-592 -1 -8 5 -17 11 -19 7 -3 197 243 446 576 l434 581 415 -577 c228 -318
420 -578 428 -578 7 0 15 5 17 10 2 6 -185 273 -416 594 l-418 584 111 151
c62 83 266 357 454 608 188 252 342 462 342 467 0 5 -7 11 -14 14 -11 4 -145
-168 -452 -581z"/>
<path d="M1035 2634 c-165 -37 -316 -118 -446 -242 -151 -142 -239 -302 -269
-492 -6 -40 -10 -353 -10 -817 l0 -753 55 0 55 0 0 754 c0 805 1 829 50 959
69 185 278 385 480 461 147 55 366 60 515 12 217 -70 412 -239 504 -437 68
-144 65 -104 69 -967 l3 -782 50 0 50 0 -3 813 -3 812 -27 76 c-79 224 -242
407 -464 521 -138 72 -212 90 -389 94 -110 3 -168 -1 -220 -12z"/>
<path d="M5866 2592 c5 -5 31 -17 58 -27 103 -38 396 -257 411 -307 4 -13 17
-34 30 -48 33 -37 154 -235 167 -272 5 -18 19 -52 30 -75 32 -70 62 -310 52
-418 -12 -124 -21 -113 -16 18 3 78 0 158 -8 205 -12 75 -44 192 -61 222 -5 8
-29 56 -55 105 -42 84 -94 154 -94 128 0 -7 20 -45 44 -85 50 -83 99 -218 91
-251 -3 -12 1 -58 10 -102 39 -203 2 -434 -98 -615 -17 -30 -71 -98 -120 -150
-183 -196 -273 -255 -502 -330 -118 -38 -130 -40 -247 -40 -205 1 -316 24
-469 101 -148 73 -277 197 -397 376 -51 77 -72 98 -72 72 0 -5 18 -40 40 -76
27 -45 37 -70 30 -77 -13 -13 -27 7 -76 101 -20 40 -47 82 -60 94 -15 14 -24
34 -24 54 0 17 -7 55 -15 83 -9 29 -20 110 -26 180 -14 193 -23 257 -34 255
-14 -2 -33 -79 -34 -135 -1 -29 -6 -48 -12 -48 -8 0 -10 24 -6 83 6 88 62 285
99 345 22 35 11 43 -17 12 -22 -24 -35 -26 -35 -5 0 8 -4 15 -9 15 -18 0 -29
-27 -35 -85 -4 -33 -16 -116 -27 -185 -19 -118 -20 -151 -4 -192 4 -10 3 -18
-3 -18 -5 0 -15 20 -22 45 -7 25 -17 45 -22 45 -28 0 -38 -136 -14 -186 8 -16
17 -60 21 -99 4 -38 10 -88 15 -110 5 -22 11 -51 13 -65 8 -41 39 -112 67
-155 15 -22 35 -56 45 -75 30 -59 162 -217 228 -271 181 -152 331 -243 365
-223 13 8 34 5 87 -12 39 -12 78 -23 87 -23 9 -1 24 -8 33 -17 20 -20 150 -47
185 -38 14 3 68 10 120 15 146 14 248 34 323 63 170 66 361 183 448 273 158
165 265 341 317 523 28 99 30 114 27 255 -1 83 -5 168 -9 190 -3 22 -11 72
-17 110 -19 118 -99 307 -181 428 -88 130 -198 228 -360 321 -104 60 -304 135
-262 98z"/>
<path d="M5175 2226 c-216 -62 -302 -122 -450 -316 -74 -97 -79 -107 -106
-225 -16 -74 -22 -131 -22 -223 l0 -123 42 -82 c23 -45 44 -99 46 -120 8 -65
44 -119 154 -227 122 -121 216 -181 362 -232 93 -33 96 -33 274 -33 166 1 186
3 257 27 165 55 373 238 459 404 82 157 94 207 92 374 -2 148 -19 260 -40 267
-9 3 -10 -4 -3 -28 5 -18 12 -85 16 -148 5 -92 3 -129 -10 -180 -21 -79 -90
-239 -112 -260 -11 -11 -8 0 9 34 40 82 41 106 1 30 -57 -105 -215 -260 -320
-313 -136 -68 -174 -77 -309 -74 -149 2 -234 21 -350 78 -125 61 -176 102
-244 194 -69 93 -102 159 -131 261 -44 156 -35 293 26 396 26 45 23 54 -8 26
-25 -23 -34 -9 -14 23 22 32 65 50 156 66 51 9 81 9 110 2 25 -7 43 -7 49 -1
13 13 70 -7 119 -42 21 -16 58 -57 80 -91 23 -34 42 -56 42 -47 0 27 -98 166
-138 194 -45 33 -97 56 -167 76 l-50 14 40 11 c22 7 73 12 113 12 40 0 71 4
68 9 -10 15 47 20 85 7 20 -7 64 -34 97 -60 32 -26 66 -46 73 -44 8 2 22 -15
34 -39 11 -24 25 -43 32 -43 21 0 15 23 -22 84 -26 44 -32 62 -25 76 6 11 5
22 -3 32 -14 18 -123 83 -154 92 -11 4 -24 13 -27 21 -3 9 -19 15 -38 16 -65
2 12 17 92 18 68 1 86 -4 185 -45 61 -25 121 -48 135 -51 24 -4 24 -3 -7 25
-34 29 -41 42 -23 42 11 0 160 -149 160 -160 0 -5 9 -6 20 -3 11 3 20 9 20 13
0 11 -128 128 -162 148 -29 17 -37 37 -17 44 7 2 4 12 -8 26 -12 14 -58 34
-131 57 -140 43 -233 46 -357 11z"/>
<path d="M5338 1463 c-28 -3 -36 -8 -31 -19 10 -27 -27 -44 -87 -39 -30 2 4
-6 75 -20 72 -13 148 -25 170 -25 22 0 67 -8 100 -18 33 -10 65 -17 72 -15 7
3 22 -1 33 -7 36 -19 33 -4 -7 34 -61 58 -114 77 -225 84 -54 2 -96 7 -94 9 3
3 29 9 58 13 45 6 47 7 13 7 -22 0 -57 -2 -77 -4z"/>
<path d="M5528 1441 c35 -10 79 -30 99 -44 25 -18 39 -23 44 -15 4 6 16 8 28
5 12 -3 21 -2 21 2 0 11 -200 71 -230 70 -14 0 3 -8 38 -18z"/>
<path d="M4991 1426 c2 -2 42 -6 89 -9 62 -4 73 -3 40 3 -46 9 -137 13 -129 6z"/>
<path d="M4810 1413 c0 -14 83 -109 133 -153 52 -46 192 -130 217 -130 8 0
-14 17 -48 37 -63 37 -146 103 -106 84 11 -5 56 -13 100 -16 43 -4 122 -13
174 -20 52 -8 149 -19 215 -25 66 -6 164 -15 218 -21 55 -6 101 -8 103 -6 13
12 -14 39 -59 61 -85 39 -382 106 -697 156 -102 17 -200 32 -217 35 -18 3 -33
2 -33 -2z"/>
<path d="M5768 1250 c31 -14 47 -29 58 -55 8 -19 16 -35 19 -35 3 0 -1 15 -8
33 -14 33 -68 77 -96 77 -9 0 3 -9 27 -20z"/>
<path d="M5375 1136 c-64 -11 -49 -12 170 -12 216 0 247 -2 315 -22 117 -33
128 -35 80 -12 -93 45 -182 60 -344 59 -83 -1 -182 -7 -221 -13z"/>
<path d="M5030 1101 c42 -25 182 -33 435 -27 250 7 358 0 450 -28 11 -4 2 3
-21 14 -81 39 -212 53 -394 44 -194 -10 -400 -11 -450 -1 -22 4 -29 3 -20 -2z"/>
</g>
</svg>
