<?xml version="1.0" standalone="no"?>
<!DOCTYPE svg PUBLIC "-//W3C//DTD SVG 20010904//EN"
 "http://www.w3.org/TR/2001/REC-SVG-20010904/DTD/svg10.dtd">
<svg version="1.0" xmlns="http://www.w3.org/2000/svg"
 width="1800.000000pt" height="800.000000pt" viewBox="0 0 1800.000000 800.000000"
 preserveAspectRatio="xMidYMid meet">

<g transform="translate(0.000000,800.000000) scale(0.100000,-0.100000)"
fill="#000000" stroke="none">
<path d="M6360 6874 c-10 -11 -11 -23 -4 -40 5 -13 470 -666 1033 -1452 563
-785 1024 -1432 1024 -1437 0 -6 -464 -633 -1032 -1394 -1088 -1457 -1060
-1417 -1000 -1436 15 -5 28 0 44 16 12 13 474 629 1025 1369 551 740 1008
1350 1014 1357 8 10 244 -313 996 -1362 542 -756 994 -1377 1004 -1381 22 -7
60 30 52 52 -2 6 -451 634 -996 1393 -664 927 -988 1386 -983 1395 5 7 487
655 1073 1440 777 1041 1065 1434 1065 1453 0 28 -24 49 -47 41 -8 -3 -495
-650 -1083 -1438 -850 -1139 -1071 -1428 -1080 -1418 -7 7 -463 643 -1015
1413 -551 770 -1012 1410 -1023 1423 -24 26 -49 28 -67 6z"/>
<path d="M3305 6704 c-225 -27 -453 -98 -680 -212 -331 -165 -669 -465 -884
-785 -133 -198 -229 -432 -281 -685 -36 -169 -40 -392 -40 -2124 l0 -1688 130
0 c72 0 131 1 132 3 1 1 5 830 8 1842 6 1821 7 1841 27 1937 80 366 263 681
554 952 392 366 818 536 1337 536 362 -1 662 -82 962 -263 286 -172 547 -429
713 -704 123 -202 197 -423 226 -678 7 -60 11 -686 11 -1857 l0 -1768 125 0
c93 0 125 3 125 13 6 353 -3 3618 -10 3680 -57 502 -316 946 -770 1322 -52 43
-142 110 -200 148 -99 66 -330 184 -430 220 -139 50 -350 100 -490 117 -116
14 -431 11 -565 -6z"/>
<path d="M14599 6581 c7 -11 50 -32 118 -55 125 -43 192 -79 358 -189 391
-261 665 -497 665 -571 0 -8 25 -43 55 -78 31 -35 84 -108 119 -163 242 -385
270 -436 302 -540 10 -33 26 -71 36 -84 30 -39 86 -230 98 -333 6 -54 16 -112
21 -130 12 -43 39 -350 39 -454 0 -45 -6 -119 -14 -165 -7 -46 -14 -102 -14
-124 -1 -51 -18 -98 -35 -93 -19 7 -20 44 -3 95 26 75 23 518 -4 678 -37 220
-41 237 -80 345 -21 59 -40 120 -43 136 -3 17 -20 54 -39 84 -20 30 -67 121
-106 202 -107 224 -233 398 -232 321 0 -20 29 -74 112 -208 73 -118 130 -236
152 -310 10 -33 29 -94 43 -135 20 -59 24 -85 18 -125 -10 -77 -7 -107 27
-285 26 -140 32 -196 35 -365 3 -124 1 -221 -6 -255 -95 -479 -135 -593 -321
-918 -37 -66 -65 -102 -91 -119 -21 -14 -89 -82 -152 -151 -225 -249 -432
-435 -587 -528 -151 -90 -484 -222 -755 -300 l-119 -34 -326 0 c-292 0 -341 3
-482 24 -169 26 -335 76 -486 147 -45 22 -84 39 -86 39 -11 0 -204 110 -266
153 -246 166 -511 449 -708 752 -125 193 -135 207 -150 213 -19 7 -33 -18 -27
-45 3 -12 40 -77 83 -146 100 -158 110 -183 89 -205 -14 -13 -20 -14 -42 -2
-13 7 -28 23 -31 34 -4 12 -20 38 -36 58 -16 20 -41 68 -57 105 -46 112 -119
230 -168 271 -45 39 -45 39 -55 126 -5 48 -18 119 -28 159 -45 164 -69 356
-76 586 -3 105 -10 163 -24 212 -14 47 -20 95 -20 166 0 78 -3 103 -15 113
-10 8 -19 9 -24 4 -23 -23 -53 -160 -63 -284 -7 -88 -16 -140 -25 -150 -23
-25 -33 5 -33 105 0 182 42 382 134 640 24 66 46 134 49 152 4 18 24 58 45 90
22 32 42 66 45 76 9 25 -15 21 -43 -8 -33 -35 -99 -79 -107 -71 -4 4 -6 22 -5
41 4 49 -16 54 -53 13 -29 -32 -33 -43 -44 -144 -18 -163 -60 -445 -81 -548
-28 -129 -27 -317 0 -381 17 -40 18 -46 4 -52 -23 -8 -29 2 -63 114 -17 56
-36 105 -42 108 -17 11 -46 -24 -58 -70 -6 -24 -11 -105 -11 -179 0 -126 2
-137 24 -170 28 -41 41 -110 56 -286 13 -146 33 -268 55 -329 8 -24 15 -57 15
-73 0 -61 86 -249 174 -383 47 -71 86 -136 86 -144 0 -25 32 -71 171 -249 183
-233 340 -390 549 -547 36 -27 108 -81 161 -121 164 -124 336 -226 444 -264
55 -19 73 -17 95 12 16 19 17 19 90 -1 41 -12 98 -29 125 -40 51 -19 178 -56
228 -66 16 -3 32 -16 39 -30 12 -27 80 -55 134 -55 17 0 51 -7 75 -16 56 -20
259 -23 304 -4 17 7 100 16 192 20 89 5 177 13 195 19 18 6 119 24 225 40 106
16 201 35 212 41 12 6 83 33 158 61 276 101 577 263 817 439 160 117 265 216
384 362 53 66 126 154 161 196 172 209 335 513 416 777 53 173 105 370 105
396 0 14 -7 47 -16 73 -14 40 -14 52 -3 74 9 19 14 95 17 257 4 216 2 233 -17
278 -14 34 -21 70 -21 117 0 159 -60 408 -155 650 -170 429 -316 661 -585 930
-173 173 -320 288 -490 382 -36 20 -117 66 -180 102 -126 73 -234 117 -412
171 -138 41 -153 43 -139 16z"/>
<path d="M13353 3888 l-63 -10 6 -37 c6 -35 4 -38 -43 -68 l-48 -31 -199 29
c-201 29 -394 49 -475 49 -89 0 -28 -12 155 -31 229 -23 276 -30 569 -81 148
-26 280 -43 370 -48 92 -5 152 -12 175 -23 54 -24 260 -75 266 -66 9 15 33 10
100 -22 36 -17 68 -28 72 -24 10 10 -146 155 -217 202 -113 74 -300 113 -541
113 -52 0 -102 4 -109 9 -27 17 38 26 189 26 117 -1 163 -5 240 -24 119 -29
230 -86 309 -157 58 -53 77 -61 46 -20 -22 29 -10 36 56 36 44 0 60 3 57 13
-5 14 -300 116 -339 117 -14 0 -39 7 -56 15 -76 38 -369 56 -520 33z"/>
<path d="M12120 3774 c0 -23 84 -137 164 -221 163 -173 306 -279 513 -382 142
-70 214 -91 100 -29 -144 79 -411 277 -395 294 3 2 29 -11 58 -30 59 -39 60
-39 350 -62 113 -9 248 -24 301 -35 93 -17 570 -71 749 -84 176 -13 318 -26
424 -41 117 -17 133 -13 122 29 -9 39 -44 75 -79 82 -17 4 -63 23 -101 42 -38
19 -103 43 -145 54 -148 40 -348 88 -511 123 -299 66 -344 75 -440 91 -52 9
-97 18 -100 20 -9 6 -793 133 -942 152 -52 7 -68 7 -68 -3z"/>
<path d="M14250 3442 c8 -6 53 -22 99 -38 107 -35 150 -72 181 -154 12 -33 27
-63 31 -66 13 -8 11 6 -11 66 -35 97 -68 128 -175 164 -79 27 -149 42 -125 28z"/>
<path d="M13804 3150 c-130 -8 -434 -47 -444 -57 -3 -3 171 -2 385 2 412 7
538 1 756 -36 120 -20 283 -65 339 -94 17 -9 39 -14 48 -12 25 6 -123 73 -260
118 -148 48 -246 67 -428 79 -159 11 -202 11 -396 0z"/>
<path d="M13600 3035 c-380 -30 -664 -30 -919 2 -73 8 -60 -11 16 -25 246 -47
349 -57 593 -57 135 0 322 6 415 14 228 18 638 11 790 -13 61 -10 146 -28 190
-41 124 -37 135 -37 65 -5 -96 46 -200 77 -350 106 -119 23 -165 27 -385 29
-146 2 -319 -2 -415 -10z"/>
</g>
</svg>
